<svg xmlns="http://www.w3.org/2000/svg" version="1.1" xmlns:xlink="http://www.w3.org/1999/xlink" xmlns:svgjs="http://svgjs.dev/svgjs" width="1500" height="1500" viewBox="0 0 1500 1500"><rect width="1500" height="1500" fill="#61777f"></rect><g transform="matrix(0.6666666666666666,0,0,0.6666666666666666,249.33011627233736,187.72149883681885)"><svg viewBox="0 0 221 248" data-background-color="#61777f" preserveAspectRatio="xMidYMid meet" height="1683" width="1500" xmlns="http://www.w3.org/2000/svg" xmlns:xlink="http://www.w3.org/1999/xlink"><g id="tight-bounds" transform="matrix(1,0,0,1,0.14804430381343536,0.4055376085825344)"><svg viewBox="0 0 220.70391139237313 247.2" height="247.2" width="220.70391139237313"><g><svg viewBox="0 0 397.4975999999999 445.218238771076" height="247.2" width="220.70391139237313"><g><rect width="397.4975999999999" height="8.868700570981566" x="0" y="210.3201389820206" fill="#ffffff" opacity="1" stroke-width="0" stroke="transparent" fill-opacity="1" class="rect-yte-0" data-fill-palette-color="primary" rx="1%" id="yte-0" data-palette-color="#ffffff"></rect></g><g><rect width="397.4975999999999" height="8.868700570981566" x="0" y="230.7970863736587" fill="#ffffff" opacity="1" stroke-width="0" stroke="transparent" fill-opacity="1" class="rect-yte-1" data-fill-palette-color="primary" rx="1%" id="yte-1" data-palette-color="#ffffff"></rect></g><g transform="matrix(1,0,0,1,0.9887999999999693,262.88228058595325)"><svg viewBox="0 0 395.52 182.33595818512276" height="182.33595818512276" width="395.52"><g id="textblocktransform"><svg viewBox="0 0 395.52 182.33595818512276" height="182.33595818512276" width="395.52" id="textblock"><g><svg viewBox="0 0 395.52 98.34330317911605" height="98.34330317911605" width="395.52"><g transform="matrix(1,0,0,1,0,0)"><svg width="395.52" viewBox="3.25 -37.1 193.43 48.1" height="98.34330317911605" data-palette-color="#ffffff"><path d="M12.2-34.85L18.5-15.6 19-15.6 26.3-34.6 33.2-34.4 33.4-12.9 34.35 0 27.6 0 27.85-13 27.3-26.15 21.3-9.6 15.15-9.3 9.55-26.15 9.1-13 9.45 0 3.25 0 3.95-12.15 4.25-33.6 12.2-34.85ZM38.75-10.45Q38.75-16.85 42.2-21.3 45.65-25.75 50.27-25.75 54.9-25.75 57.47-22.75 60.05-19.75 60.05-14.8L60.05-14.8Q60.05-8.2 56.72-3.83 53.4 0.55 48.35 0.55L48.35 0.55Q44.2 0.55 41.47-2.58 38.75-5.7 38.75-10.45L38.75-10.45ZM54.45-12.2L54.45-12.2Q54.45-19.45 49.5-19.45L49.5-19.45Q44.35-19.45 44.35-12.65L44.35-12.65Q44.35-9.1 45.8-7.1 47.25-5.1 49.62-5.1 52-5.1 53.22-6.93 54.45-8.75 54.45-12.2ZM84.9-14.4L86.65-6.25 87.3-6.25 88.9-13.1 91.5-25.45 97.59-24.7 93.95-12.3 90.9-0.6 82.7 0.15 79.95-12 79.7-12.8 76.35-0.6 68.4 0.15 65.5-12 62.05-24.15 68.6-25.4 70.65-14.4 72.45-6.25 73.1-6.25 77.4-20.5 76.35-24.15 82.8-25.4 84.9-14.4ZM100.34-24.15L100.34-24.15 106.39-25.45Q106.84-21.6 106.99-18.15L106.99-18.15Q111.54-25.2 115.54-25.2L115.54-25.2 114.99-17.4Q112.09-17.4 110.42-16.88 108.74-16.35 106.99-14.8L106.99-14.8 106.99-13 107.54-1.25 100.84 0 101.44-12.15Q101.24-18.85 100.34-24.15ZM118.69-24.2L125.39-25.45 124.79-13 125.34-1.25 118.64 0 119.24-12.15 118.69-24.2ZM118.34-32.77Q118.34-34.45 119.64-35.77 120.94-37.1 122.64-37.1 124.34-37.1 125.24-36.18 126.14-35.25 126.14-33.4 126.14-31.55 124.87-30.23 123.59-28.9 121.92-28.9 120.24-28.9 119.29-30 118.34-31.1 118.34-32.77ZM138.04 11L131.59 9.65 136.74-1.9 133.04-12 127.99-24.15 134.64-25.4 137.84-14.75 139.49-9.7 140.14-9.7 141.34-13.35 144.94-25.45 151.09-24.7 142.24-1.45 138.04 11ZM159.14 0Q156.19 0 154.31-1.88 152.44-3.75 152.44-6.93 152.44-10.1 155.34-12.43 158.24-14.75 162.39-14.75L162.39-14.75 165.79-14.75 165.79-15.6Q165.79-18.05 164.79-18.95 163.79-19.85 161.04-19.85L161.04-19.85Q159.89-19.85 158.31-19.38 156.74-18.9 154.79-17.9L154.79-17.9 153.34-21.85Q155.49-23.35 158.56-24.55 161.64-25.75 163.64-25.75L163.64-25.75Q171.49-25.75 171.49-18.15L171.49-18.15 171.49-8.35Q171.49-5.55 173.24-2.1L173.24-2.1 167.94 0.15Q166.69-2.25 166.09-4.15L166.09-4.15Q163.34 0 159.14 0L159.14 0ZM161.24-5.1L161.24-5.1Q163.24-5.1 165.79-7.15L165.79-7.15 165.79-10.5Q163.14-11.1 161.49-11.1L161.49-11.1Q158.34-11.1 158.34-8.3L158.34-8.3Q158.34-6.85 159.14-5.98 159.94-5.1 161.24-5.1ZM182.58 0Q179.63 0 177.76-1.88 175.88-3.75 175.88-6.93 175.88-10.1 178.78-12.43 181.68-14.75 185.83-14.75L185.83-14.75 189.23-14.75 189.23-15.6Q189.23-18.05 188.23-18.95 187.23-19.85 184.48-19.85L184.48-19.85Q183.33-19.85 181.76-19.38 180.18-18.9 178.23-17.9L178.23-17.9 176.78-21.85Q178.93-23.35 182.01-24.55 185.08-25.75 187.08-25.75L187.08-25.75Q194.93-25.75 194.93-18.15L194.93-18.15 194.93-8.35Q194.93-5.55 196.68-2.1L196.68-2.1 191.38 0.15Q190.13-2.25 189.53-4.15L189.53-4.15Q186.78 0 182.58 0L182.58 0ZM184.68-5.1L184.68-5.1Q186.68-5.1 189.23-7.15L189.23-7.15 189.23-10.5Q186.58-11.1 184.93-11.1L184.93-11.1Q181.78-11.1 181.78-8.3L181.78-8.3Q181.78-6.85 182.58-5.98 183.38-5.1 184.68-5.1Z" opacity="1" transform="matrix(1,0,0,1,0,0)" fill="#ffffff" class="wordmark-text-0" data-fill-palette-color="primary" id="text-0"></path></svg></g></svg></g><g transform="matrix(1,0,0,1,0,121.55979682042906)"><svg viewBox="0 0 395.52 60.77616136469371" height="60.77616136469371" width="395.52"><g transform="matrix(1,0,0,1,0,0)"><svg width="395.52" viewBox="3.4 -37.9 320.84000000000003 49.3" height="60.77616136469371" data-palette-color="#ffffff"><path d="M3.65 11.4L3.65-19.35Q3.65-21.15 3.4-24.7L3.4-24.7 7.1-25.2 7.55-22.5Q8.55-23.35 9.63-24.03 10.7-24.7 11.98-25.18 13.25-25.65 14.7-25.65L14.7-25.65Q16.75-25.65 18.57-24.95 20.4-24.25 21.78-22.7 23.15-21.15 23.95-18.68 24.75-16.2 24.75-12.6L24.75-12.6Q24.75-8.95 23.68-6.43 22.6-3.9 20.88-2.33 19.15-0.75 16.98-0.05 14.8 0.65 12.55 0.65L12.55 0.65Q10.15 0.6 7.65 0.05L7.65 0.05 7.65 10.9 3.65 11.4ZM12.55-2.85L12.55-2.85Q14.65-2.85 16.15-3.6 17.65-4.35 18.63-5.68 19.6-7 20.05-8.72 20.5-10.45 20.5-12.4L20.5-12.4Q20.5-14.15 20.18-15.9 19.85-17.65 19.13-19.03 18.4-20.4 17.2-21.28 16-22.15 14.25-22.15L14.25-22.15Q12.95-22.15 11.8-21.68 10.65-21.2 9.63-20.53 8.6-19.85 7.65-19L7.65-19 7.65-3.65Q8.2-3.45 8.88-3.28 9.55-3.1 10.48-2.98 11.4-2.85 12.55-2.85ZM50.87-12.45L50.87-12.45Q50.87-7.6 53.04-5.23 55.22-2.85 58.92-2.85L58.92-2.85Q62.57-2.85 64.62-5.2 66.67-7.55 66.67-12.25L66.67-12.25Q66.67-17.25 64.49-19.7 62.32-22.15 58.57-22.15L58.57-22.15Q54.82-22.15 52.84-19.73 50.87-17.3 50.87-12.45ZM46.62-12.5L46.62-12.5Q46.62-16.3 47.82-18.82 49.02-21.35 50.87-22.88 52.72-24.4 54.84-25.03 56.97-25.65 58.87-25.65L58.87-25.65Q60.67-25.65 62.79-25.08 64.92-24.5 66.72-23.03 68.52-21.55 69.72-19.07 70.92-16.6 70.92-12.8L70.92-12.8Q70.92-8.85 69.69-6.25 68.47-3.65 66.62-2.13 64.77-0.6 62.62 0.03 60.47 0.65 58.62 0.65L58.62 0.65Q56.72 0.65 54.62 0.05 52.52-0.55 50.74-2.02 48.97-3.5 47.79-6.05 46.62-8.6 46.62-12.5ZM94.18 0L94.18-21.1Q94.18-22.25 93.93-24.7L93.93-24.7 97.63-25.2 98.03-21.55 98.08-21.55Q98.98-22.7 99.83-23.55 100.68-24.4 101.61-25.03 102.53-25.65 103.38-25.65L103.38-25.65Q104.53-25.7 106.58-25.4L106.58-25.4 105.68-21.55Q104.03-21.85 103.38-21.8L103.38-21.8Q102.53-21.8 101.58-21 100.63-20.2 99.93-19.3L99.93-19.3Q99.03-18.2 98.18-16.8L98.18-16.8 98.18 0 94.18 0ZM130.25-32.15L134.25-32.65 134.25-25.15 141.5-25.15 141.5-21.9 134.25-21.9 134.25-8.55Q134.25-6.9 134.33-5.8 134.4-4.7 134.65-4.05 134.9-3.4 135.35-3.13 135.8-2.85 136.5-2.85L136.5-2.85Q138.4-2.9 140.9-4.25L140.9-4.25 142.1-1.2Q140.45-0.1 139.03 0.28 137.6 0.65 136.2 0.65L136.2 0.65Q132.9 0.65 131.58-1.23 130.25-3.1 130.25-7.45L130.25-7.45 130.25-21.9 125.65-21.9 125.65-25.15 130.25-25.15 130.25-32.15ZM166.17 0L166.17-21.9 161.52-21.9 161.52-25.15 166.17-25.15Q166.17-28.65 166.64-31.08 167.12-33.5 168.17-35.02 169.22-36.55 170.87-37.23 172.52-37.9 174.87-37.9L174.87-37.9Q176.77-37.9 178.42-37.27 180.07-36.65 181.07-35.75L181.07-35.75 179.32-32.75Q178.32-33.5 177.24-33.95 176.17-34.4 174.92-34.4L174.92-34.4Q173.27-34.4 172.32-33.68 171.37-32.95 170.89-31.7 170.42-30.45 170.29-28.78 170.17-27.1 170.17-25.15L170.17-25.15 176.42-25.15 176.42-21.9 170.17-21.9 170.17 0 166.17 0ZM200.83-12.45L200.83-12.45Q200.83-7.6 203.01-5.23 205.18-2.85 208.88-2.85L208.88-2.85Q212.53-2.85 214.58-5.2 216.63-7.55 216.63-12.25L216.63-12.25Q216.63-17.25 214.46-19.7 212.28-22.15 208.53-22.15L208.53-22.15Q204.78-22.15 202.81-19.73 200.83-17.3 200.83-12.45ZM196.58-12.5L196.58-12.5Q196.58-16.3 197.78-18.82 198.98-21.35 200.83-22.88 202.68-24.4 204.81-25.03 206.93-25.65 208.83-25.65L208.83-25.65Q210.63-25.65 212.76-25.08 214.88-24.5 216.68-23.03 218.48-21.55 219.68-19.07 220.88-16.6 220.88-12.8L220.88-12.8Q220.88-8.85 219.66-6.25 218.43-3.65 216.58-2.13 214.73-0.6 212.58 0.03 210.43 0.65 208.58 0.65L208.58 0.65Q206.68 0.65 204.58 0.05 202.48-0.55 200.71-2.02 198.93-3.5 197.76-6.05 196.58-8.6 196.58-12.5ZM244.1 0L244.1-37.45 248.1-37.9 248.1 0 244.1 0ZM272.72 0L272.72-25.2 276.72-25.65 276.72 0 272.72 0ZM272.07-32.35L272.07-32.35Q272.07-33.5 272.84-34.27 273.62-35.05 274.77-35.05L274.77-35.05Q275.97-35.05 276.79-34.27 277.62-33.5 277.62-32.35L277.62-32.35Q277.62-31.2 276.79-30.43 275.97-29.65 274.77-29.65L274.77-29.65Q273.62-29.65 272.84-30.43 272.07-31.2 272.07-32.35ZM304.19-12.45L304.19-12.45Q304.19-7.6 306.36-5.23 308.54-2.85 312.24-2.85L312.24-2.85Q315.89-2.85 317.94-5.2 319.99-7.55 319.99-12.25L319.99-12.25Q319.99-17.25 317.81-19.7 315.64-22.15 311.89-22.15L311.89-22.15Q308.14-22.15 306.16-19.73 304.19-17.3 304.19-12.45ZM299.94-12.5L299.94-12.5Q299.94-16.3 301.14-18.82 302.34-21.35 304.19-22.88 306.04-24.4 308.16-25.03 310.29-25.65 312.19-25.65L312.19-25.65Q313.99-25.65 316.11-25.08 318.24-24.5 320.04-23.03 321.84-21.55 323.04-19.07 324.24-16.6 324.24-12.8L324.24-12.8Q324.24-8.85 323.01-6.25 321.79-3.65 319.94-2.13 318.09-0.6 315.94 0.03 313.79 0.65 311.94 0.65L311.94 0.65Q310.04 0.65 307.94 0.05 305.84-0.55 304.06-2.02 302.29-3.5 301.11-6.05 299.94-8.6 299.94-12.5Z" opacity="1" transform="matrix(1,0,0,1,0,0)" fill="#ffffff" class="slogan-text-1" data-fill-palette-color="secondary" id="text-1"></path></svg></g></svg></g></svg></g></svg></g><g transform="matrix(1,0,0,1,76.53311999999997,0)"><svg viewBox="0 0 244.43135999999998 187.1036453407076" height="187.1036453407076" width="244.43135999999998"><g><svg xmlns="http://www.w3.org/2000/svg" xmlns:xlink="http://www.w3.org/1999/xlink" version="1.1" x="0" y="0" viewBox="1.9558987872296392 13.22399969634886 96.08669569662523 73.55100030365115" enable-background="new 0 0 100 100" xml:space="preserve" height="187.1036453407076" width="244.43135999999998" class="icon-icon-0" data-fill-palette-color="accent" id="icon-0"><g fill="#ffffff" data-fill-palette-color="accent"><path d="M96.697 37.111A6.02 6.02 0 0 0 91.999 34.87H89.557V25.492A6.05 6.05 0 0 0 83.512 19.449H51.969L50.29 16.371A6.04 6.04 0 0 0 44.986 13.224H16.486A6.05 6.05 0 0 0 10.444 19.267V34.87H8.001A6.03 6.03 0 0 0 3.298 37.115 6.03 6.03 0 0 0 2.09 42.172L10.576 81.991C11.168 84.763 13.653 86.775 16.485 86.775H83.511C86.347 86.775 88.833 84.763 89.422 81.991L97.908 42.17A6.02 6.02 0 0 0 96.697 37.111M15.739 19.268C15.739 18.855 16.074 18.52 16.485 18.52H44.985C45.257 18.52 45.51 18.67 45.64 18.909L48.072 23.365A2.65 2.65 0 0 0 50.397 24.744H83.511A0.75 0.75 0 0 1 84.26 25.492V34.87H15.739zM84.243 80.887A0.75 0.75 0 0 1 83.512 81.48H16.485A0.75 0.75 0 0 1 15.756 80.887L7.271 41.069A0.75 0.75 0 0 1 7.418 40.443 0.76 0.76 0 0 1 8.001 40.166H91.999A0.745 0.745 0 0 1 92.729 41.067z" fill="#ffffff" data-fill-palette-color="accent"></path></g></svg></g></svg></g><g></g></svg></g><defs></defs></svg><rect width="220.70391139237313" height="247.2" fill="none" stroke="none" visibility="hidden"></rect></g></svg></g></svg>