<svg xmlns="http://www.w3.org/2000/svg" version="1.1" xmlns:xlink="http://www.w3.org/1999/xlink" xmlns:svgjs="http://svgjs.dev/svgjs" width="1500" height="329" viewBox="0 0 1500 329"><g transform="matrix(1,0,0,1,-0.9090909090909918,-1.0919175528076437)"><svg viewBox="0 0 396 87" data-background-color="#ffffff" preserveAspectRatio="xMidYMid meet" height="329" width="1500" xmlns="http://www.w3.org/2000/svg" xmlns:xlink="http://www.w3.org/1999/xlink"><g id="tight-bounds" transform="matrix(1,0,0,1,0.2400000000000091,0.28874415530171404)"><svg viewBox="0 0 395.52 86.42218428416558" height="86.42218428416558" width="395.52"><g><svg viewBox="0 0 553.4556182757708 120.93154185814994" height="86.42218428416558" width="395.52"><g transform="matrix(1,0,0,1,157.93561827577088,21.27915685392447)"><svg viewBox="0 0 395.52 78.373228150301" height="78.373228150301" width="395.52"><g id="textblocktransform"><svg viewBox="0 0 395.52 78.373228150301" height="78.373228150301" width="395.52" id="textblock"><g><svg viewBox="0 0 395.52 78.373228150301" height="78.373228150301" width="395.52"><g transform="matrix(1,0,0,1,0,0)"><svg width="395.52" viewBox="3.15 -36.23 235.19 46.61" height="78.373228150301" data-palette-color="#000000"><path d="M26.83 0L22.88 0 22.88-21.19Q22.88-24.49 22.95-26.1L22.95-26.1 23.02-28.54Q21.46-23.51 20.7-21.44L20.7-21.44 16.7-10.74 13.35-10.74 9.3-21.44Q8.86-22.56 6.96-28.54L6.96-28.54 7.06-21.19 7.06 0 3.15 0 3.15-32.93 8.94-32.93 13.45-21Q13.96-19.7 15.11-15.36L15.11-15.36 15.75-17.55 16.82-20.97 21.34-32.93 26.83-32.93 26.83 0ZM56.78-13.23L56.78-13.23Q56.78-6.57 53.72-3.04 50.66 0.49 44.87 0.49L44.87 0.49Q39.21 0.49 36.19-3.08 33.18-6.64 33.18-13.23L33.18-13.23Q33.18-20.04 36.26-23.47 39.35-26.9 45.02-26.9L45.02-26.9Q50.97-26.9 53.88-23.51 56.78-20.12 56.78-13.23ZM52.17-13.23L52.17-13.23Q52.17-18.48 50.5-21.07 48.83-23.66 45.09-23.66L45.09-23.66Q41.31-23.66 39.55-21.02 37.79-18.38 37.79-13.23L37.79-13.23Q37.79-8.11 39.55-5.43 41.31-2.76 44.82-2.76L44.82-2.76Q48.7-2.76 50.44-5.37 52.17-7.98 52.17-13.23ZM89.5-26.42L84.86 0 79.88 0 76.39-11.5 75-16.43 74.04-13.04 69.94 0 64.99 0 60.52-26.42 64.86-26.42 67.13-11.6Q67.94-5.15 67.94-3.64L67.94-3.64Q68.89-7.54 69.36-8.86L69.36-8.86 72.65-19.21 77.36-19.21 80.54-8.84Q81.32-6.27 81.88-3.64L81.88-3.64Q81.88-4.37 81.98-5.47 82.08-6.57 82.22-7.73 82.37-8.89 82.51-9.94 82.66-10.99 82.73-11.6L82.73-11.6 85.2-26.42 89.5-26.42ZM115.52-26.49L115.52-22.41Q112.79-22.88 110.34-22.88L110.34-22.88Q106.41-22.88 104-19.92 101.58-16.97 101.58-12.4L101.58-12.4 101.58 0 97.18 0 97.18-17.11Q97.18-18.97 96.86-21.48 96.53-24 95.92-26.42L95.92-26.42 100.09-26.42Q101.07-23.05 101.26-20.31L101.26-20.31 101.38-20.31Q102.6-23.05 103.78-24.33 104.95-25.61 106.56-26.26 108.17-26.9 110.49-26.9L110.49-26.9Q113.03-26.9 115.52-26.49L115.52-26.49ZM138.2-26.42L138.2-3.47 147.48-3.47 147.48 0 123.5 0 123.5-3.47 133.8-3.47 133.8-22.95 126.02-22.95 126.02-26.42 138.2-26.42ZM138.2-31.54L133.32-31.54 133.32-36.23 138.2-36.23 138.2-31.54ZM157.14 10.38L157.14 10.38Q155.33 10.38 154.11 10.11L154.11 10.11 154.11 6.81Q155.04 6.96 156.16 6.96L156.16 6.96Q158.09 6.96 159.79 5.52 161.49 4.08 162.66 0.93L162.66 0.93 163.1-0.27 151.62-26.42 156.31-26.42 162.76-10.74Q164.98-5.27 165.15-4.54L165.15-4.54 166.15-7.23 173.72-26.42 178.36-26.42 167.22 0Q165.05 5.74 162.72 8.06 160.39 10.38 157.14 10.38ZM206.89-2.71L206.89-2.71Q207.53-2.71 208.33-2.88L208.33-2.88 208.33-0.15Q206.67 0.24 204.94 0.24L204.94 0.24Q202.5 0.24 201.39-1.04 200.28-2.32 200.13-5.05L200.13-5.05 199.99-5.05Q198.4-2.1 196.24-0.81 194.08 0.49 190.9 0.49L190.9 0.49Q187.05 0.49 185.09-1.61 183.14-3.71 183.14-7.37L183.14-7.37Q183.14-15.89 194.22-16.02L194.22-16.02 199.99-16.11 199.99-17.55Q199.99-20.75 198.69-22.16 197.4-23.56 194.57-23.56L194.57-23.56Q191.68-23.56 190.41-22.53 189.15-21.51 188.9-19.36L188.9-19.36 184.31-19.78Q185.43-26.9 194.64-26.9L194.64-26.9Q199.52-26.9 201.97-24.62 204.43-22.34 204.43-18.02L204.43-18.02 204.43-6.64Q204.43-4.69 204.94-3.7 205.45-2.71 206.89-2.71ZM192.03-2.86L192.03-2.86Q194.37-2.86 196.18-3.98 197.98-5.1 198.98-6.98 199.99-8.86 199.99-10.86L199.99-10.86 199.99-13.04 195.35-12.94Q192.47-12.89 190.95-12.3 189.44-11.72 188.6-10.51 187.75-9.3 187.75-7.3L187.75-7.3Q187.75-5.3 188.84-4.08 189.93-2.86 192.03-2.86ZM236.9-2.71L236.9-2.71Q237.53-2.71 238.34-2.88L238.34-2.88 238.34-0.15Q236.68 0.24 234.94 0.24L234.94 0.24Q232.5 0.24 231.39-1.04 230.28-2.32 230.13-5.05L230.13-5.05 229.99-5.05Q228.4-2.1 226.24-0.81 224.08 0.49 220.91 0.49L220.91 0.49Q217.05 0.49 215.09-1.61 213.14-3.71 213.14-7.37L213.14-7.37Q213.14-15.89 224.23-16.02L224.23-16.02 229.99-16.11 229.99-17.55Q229.99-20.75 228.69-22.16 227.4-23.56 224.57-23.56L224.57-23.56Q221.69-23.56 220.42-22.53 219.15-21.51 218.9-19.36L218.9-19.36 214.31-19.78Q215.44-26.9 224.64-26.9L224.64-26.9Q229.52-26.9 231.98-24.62 234.43-22.34 234.43-18.02L234.43-18.02 234.43-6.64Q234.43-4.69 234.94-3.7 235.46-2.71 236.9-2.71ZM222.03-2.86L222.03-2.86Q224.37-2.86 226.18-3.98 227.99-5.1 228.99-6.98 229.99-8.86 229.99-10.86L229.99-10.86 229.99-13.04 225.35-12.94Q222.47-12.89 220.95-12.3 219.44-11.72 218.6-10.51 217.76-9.3 217.76-7.3L217.76-7.3Q217.76-5.3 218.84-4.08 219.93-2.86 222.03-2.86Z" opacity="1" transform="matrix(1,0,0,1,0,0)" fill="#000000" class="wordmark-text-0" data-fill-palette-color="primary" id="text-0"></path></svg></g></svg></g></svg></g></svg></g><g><svg viewBox="0 0 120.93154185814994 120.93154185814994" height="120.93154185814994" width="120.93154185814994"><g><svg></svg></g><g id="icon-0"><svg viewBox="0 0 120.93154185814994 120.93154185814994" height="120.93154185814994" width="120.93154185814994"><g><path d="M0 60.466c0-33.394 27.071-60.466 60.466-60.466 33.394 0 60.466 27.071 60.466 60.466 0 33.394-27.071 60.466-60.466 60.466-33.394 0-60.466-27.071-60.466-60.466zM60.466 113.864c29.491 0 53.398-23.907 53.398-53.398 0-29.491-23.907-53.398-53.398-53.398-29.491 0-53.398 23.907-53.398 53.398 0 29.491 23.907 53.398 53.398 53.398z" data-fill-palette-color="tertiary" fill="#261f20" stroke="transparent"></path></g><g transform="matrix(1,0,0,1,41.81810636953601,28.324958294640773)"><svg viewBox="0 0 37.29532911907792 64.2816252688684" height="64.2816252688684" width="37.29532911907792"><g><svg xmlns="http://www.w3.org/2000/svg" xmlns:xlink="http://www.w3.org/1999/xlink" version="1.1" x="0" y="0" viewBox="21.679106830508616 1 56.85827385947762 98" enable-background="new 0 0 100 100" xml:space="preserve" height="64.2816252688684" width="37.29532911907792" class="icon-dxe-0" data-fill-palette-color="accent" id="dxe-0"><g fill="#261f20" data-fill-palette-color="accent"><path fill-rule="evenodd" clip-rule="evenodd" d="M30.545 28.822C29.38 36.039 30.875 43.672 37.045 47.863 30.758 19.81 45.756 8.664 59.646 1 43.466 24.046 76.542 24.644 78.423 51.13 80.028 73.71 64.507 91.317 46.639 99 46.845 76.175 24.089 73.067 21.801 54.397 20.905 47.094 25.062 33.766 30.545 28.822" fill="#261f20" data-fill-palette-color="accent"></path></g></svg></g></svg></g></svg></g></svg></g></svg></g><defs></defs></svg><rect width="395.52" height="86.42218428416558" fill="none" stroke="none" visibility="hidden"></rect></g></svg></g></svg>